<svg width="32" height="32" viewBox="0 0 32 32" fill="none" xmlns="http://www.w3.org/2000/svg">
  <!-- Background circle -->
  <circle cx="16" cy="16" r="15" fill="url(#backgroundGradient)" stroke="#15803d" stroke-width="1"/>

  <!-- Main plant stem -->
  <path d="M16 26 L16 10" stroke="#15803d" stroke-width="2" stroke-linecap="round"/>

  <!-- Left leaves -->
  <path d="M16 14 Q10 12 8 10 Q10 16 16 14" fill="#22c55e" stroke="#16a34a" stroke-width="0.5"/>
  <path d="M16 18 Q9 16 6 14 Q9 20 16 18" fill="#10b981" stroke="#16a34a" stroke-width="0.5"/>

  <!-- Right leaves -->
  <path d="M16 14 Q22 12 24 10 Q22 16 16 14" fill="#22c55e" stroke="#16a34a" stroke-width="0.5"/>
  <path d="M16 18 Q23 16 26 14 Q23 20 16 18" fill="#10b981" stroke="#16a34a" stroke-width="0.5"/>

  <!-- Top sprouting leaves -->
  <path d="M16 10 Q14 8 12 7 Q14 10 16 10" fill="#4ade80" stroke="#16a34a" stroke-width="0.5"/>
  <path d="M16 10 Q18 8 20 7 Q18 10 16 10" fill="#4ade80" stroke="#16a34a" stroke-width="0.5"/>

  <!-- Root system indication -->
  <circle cx="16" cy="26" r="2" fill="#15803d"/>
  <path d="M14 27 Q12 28 10 29" stroke="#15803d" stroke-width="1" stroke-linecap="round"/>
  <path d="M18 27 Q20 28 22 29" stroke="#15803d" stroke-width="1" stroke-linecap="round"/>

  <!-- Growth tracking dots -->
  <circle cx="12" cy="22" r="1" fill="#4ade80" opacity="0.6"/>
  <circle cx="20" cy="22" r="1" fill="#4ade80" opacity="0.6"/>

  <!-- Gradient definitions -->
  <defs>
    <linearGradient id="backgroundGradient" x1="0%" y1="0%" x2="100%" y2="100%">
      <stop offset="0%" stop-color="#dcfce7" stop-opacity="0.8"/>
      <stop offset="100%" stop-color="#bbf7d0" stop-opacity="0.6"/>
    </linearGradient>
  </defs>
</svg>